<?xml version="1.0" encoding="UTF-8"?>
<svg width="512" height="512" viewBox="0 0 512 512" xmlns="http://www.w3.org/2000/svg">
  <defs>
    <linearGradient id="grad1" x1="0%" y1="0%" x2="100%" y2="100%">
      <stop offset="0%" style="stop-color:#3B82F6;stop-opacity:1" />
      <stop offset="100%" style="stop-color:#1E40AF;stop-opacity:1" />
    </linearGradient>
  </defs>
  
  <!-- Background circle -->
  <circle cx="256" cy="256" r="240" fill="url(#grad1)" stroke="#1E40AF" stroke-width="8"/>
  
  <!-- Translation arrows -->
  <g fill="white" opacity="0.9">
    <!-- Left text lines -->
    <rect x="80" y="180" width="120" height="8" rx="4"/>
    <rect x="80" y="200" width="100" height="8" rx="4"/>
    <rect x="80" y="220" width="110" height="8" rx="4"/>
    
    <!-- Right text lines -->
    <rect x="312" y="280" width="120" height="8" rx="4"/>
    <rect x="312" y="300" width="100" height="8" rx="4"/>
    <rect x="312" y="320" width="110" height="8" rx="4"/>
    
    <!-- Arrow pointing right -->
    <path d="M220 200 L280 200 L270 190 M280 200 L270 210" 
          stroke="white" stroke-width="6" fill="none" stroke-linecap="round"/>
    
    <!-- Arrow pointing down-right -->
    <path d="M240 240 L300 300 L290 295 M300 300 L295 290" 
          stroke="white" stroke-width="6" fill="none" stroke-linecap="round"/>
  </g>
  
  <!-- Language indicators -->
  <text x="140" y="160" font-family="Arial, sans-serif" font-size="20" font-weight="bold" fill="white">עב</text>
  <text x="350" y="360" font-family="Arial, sans-serif" font-size="20" font-weight="bold" fill="white">EN</text>
</svg>
